<?xml version="1.0" encoding="UTF-8"?>
<!DOCTYPE svg PUBLIC "-//W3C//DTD SVG 1.1//EN" "http://www.w3.org/Graphics/SVG/1.1/DTD/svg11.dtd">
<!-- Creator: CorelDRAW X6 -->
<svg xmlns="http://www.w3.org/2000/svg" xml:space="preserve" width="3in" height="0.77778in" version="1.1" style="shape-rendering:geometricPrecision; text-rendering:geometricPrecision; image-rendering:optimizeQuality; fill-rule:evenodd; clip-rule:evenodd"
viewBox="0 0 3000 778"
 xmlns:xlink="http://www.w3.org/1999/xlink">
 <defs>
  <style type="text/css">
   <![CDATA[
    .fil0 {fill:white;fill-rule:nonzero}
   ]]>
  </style>
 </defs>
 <g id="Layer_x0020_1">
  <metadata id="CorelCorpID_0Corel-Layer"/>
  <path class="fil0" d="M692 762l-88 0c-33,0 -60,-27 -60,-60l0 -705 148 0 0 765z"/>
  <path class="fil0" d="M1289 762l-85 0c-33,0 -60,-27 -60,-60l0 -1c-36,44 -89,75 -164,75 -151,0 -265,-124 -265,-289 0,-165 114,-289 265,-289 75,0 128,31 164,75l0 -61 144 0 0 548zm-423 -274c0,84 55,151 141,151 84,0 141,-64 141,-151 0,-87 -57,-151 -141,-151 -87,0 -141,67 -141,151z"/>
  <path class="fil0" d="M1476 762l-88 0c-33,0 -60,-27 -60,-60l0 -705 148 0 0 764z"/>
  <path class="fil0" d="M2092 488c0,165 -126,289 -297,289 -170,0 -296,-123 -296,-289 0,-165 126,-289 296,-289 171,0 297,123 297,289zm-442 0c0,89 62,151 145,151 83,0 146,-62 146,-151 0,-89 -63,-151 -146,-151 -83,0 -145,62 -145,151z"/>
  <path class="fil0" d="M3000 413l0 349 -87 0c-33,0 -60,-27 -60,-60l0 -242c0,-79 -40,-123 -107,-123 -63,0 -116,41 -116,124l0 300 -88 0c-33,0 -60,-27 -60,-60l0 -242c0,-79 -40,-123 -107,-123 -63,0 -116,41 -116,124l0 300 -88 0c-33,0 -60,-27 -60,-60l0 -488 144 0 0 64c39,-58 99,-79 161,-79 79,0 144,36 181,94 42,-70 114,-94 186,-94 129,0 216,87 216,214z"/>
  <path class="fil0" d="M480 325c-13,29 -47,42 -76,31 -43,-17 -98,-32 -153,-33 -56,-1 -82,18 -83,48 -1,32 31,40 81,48l67 9c119,14 208,71 206,173 -2,114 -95,179 -279,176 -75,-1 -167,-23 -243,-69l51 -114c36,20 111,59 194,60 81,1 124,-13 124,-52 1,-39 -52,-42 -123,-52l-33 -5c-161,-25 -201,-86 -199,-175 2,-113 110,-173 239,-171 99,2 182,27 254,64l-27 60z"/>
 </g>
</svg>
